# xmcd
#
# Track frame offsets:
#	180
#	12692
#	21301
#	38426
#	54472
#	75176
#	88741
#	106900
#	120765
#	132979
#	146039
#	159255
#	176631
#	191104
#
# Disc length: 2783 seconds
#
# Revision: 1
# Processed by: cddbd v1.5.2PL0 Copyright (c) Steve Scherf et al.
# Submitted via: EasyCDDAExtractor 16.0.1.1
#
DISCID=ac0add0e
DTITLE=The Cornell Hurd Band - Honky Tonk Mayhem
DYEAR=1991
DGENRE=Country
TTITLE0=It's Just The Whiskey Talkin'
TTITLE1=My Window Faces The South
TTITLE2=Home To Texas
TTITLE3=My Boogie Woogie Country Gal
TTITLE4=It's Dark All Over The World
TTITLE5=Just Call Me "Steven" (I'm Leavin')
TTITLE6=I Cry, Then I Drink, Then I Cry
TTITLE7=A Little Travellin' Music, Plase
TTITLE8=I Don't Hurt Anymore
TTITLE9=Honky-Tonk Has-Been
TTITLE10=Put Your Make-Up On
TTITLE11=Happy Hour In Hell
TTITLE12=I Dreamed Of An Old Love Affair
TTITLE13=Seven Nights To Rock
EXTD=
EXTT0=
EXTT1=
EXTT2=
EXTT3=
EXTT4=
EXTT5=
EXTT6=
EXTT7=
EXTT8=
EXTT9=
EXTT10=
EXTT11=
EXTT12=
EXTT13=
PLAYORDER=
